<?xml version="1.0" encoding="UTF-8" standalone="no"?>
<svg
   id="weather-icon-fog"
   class="weather-icon weather-icon-white fog"
   viewBox="0 0 64 64"
   version="1.1"
   sodipodi:docname="fog.svg"
   inkscape:version="1.2.2 (b0a8486541, 2022-12-01)"
   xmlns:inkscape="http://www.inkscape.org/namespaces/inkscape"
   xmlns:sodipodi="http://sodipodi.sourceforge.net/DTD/sodipodi-0.dtd"
   xmlns="http://www.w3.org/2000/svg"
   xmlns:svg="http://www.w3.org/2000/svg">
  <defs
     id="defs294" />
  <sodipodi:namedview
     id="namedview292"
     pagecolor="#000000"
     bordercolor="#000000"
     borderopacity="0.25"
     inkscape:showpageshadow="2"
     inkscape:pageopacity="0"
     inkscape:pagecheckerboard="0"
     inkscape:deskcolor="#d1d1d1"
     showgrid="false"
     inkscape:zoom="11.6015"
     inkscape:cx="21.376547"
     inkscape:cy="21.678232"
     inkscape:window-width="1918"
     inkscape:window-height="1054"
     inkscape:window-x="0"
     inkscape:window-y="24"
     inkscape:window-maximized="1"
     inkscape:current-layer="weather-icon-fog" />
  <style
     type="text/css"
     id="style284">.st0{fill:#FFFFFF;}</style>
  <g
     id="fog"
     transform="matrix(0.65198061,0,0,0.65198061,10.658899,19.278753)">
    <path
       class="st0"
       d="m 41.7,38.5 c -3.2,0 -6.1,-0.9 -8.7,-2.7 -7.2,-5.1 -13.2,-5.3 -19.6,-0.9 -0.5,0.3 -1.1,0.2 -1.4,-0.3 -0.3,-0.5 -0.2,-1.1 0.3,-1.4 7.1,-4.9 14.1,-4.6 21.9,0.9 6.2,4.4 13.3,1.9 18.2,-1 0.5,-0.3 1.1,-0.1 1.4,0.4 0.3,0.5 0.1,1.1 -0.4,1.4 -4,2.4 -8,3.6 -11.7,3.6 z"
       id="path286" />
    <path
       class="st0"
       d="M 41.7,46.3 C 38.5,46.3 35.6,45.4 33,43.6 25.8,38.5 19.8,38.3 13.4,42.7 12.9,43 12.3,42.9 12,42.4 11.7,41.9 11.8,41.3 12.3,41 c 7.1,-4.9 14.1,-4.6 21.9,0.9 6.2,4.3 13.3,1.9 18.2,-1 0.5,-0.3 1.1,-0.1 1.4,0.4 0.3,0.5 0.1,1.1 -0.4,1.4 -4,2.4 -8,3.6 -11.7,3.6 z m 0,-15.5 C 38.5,30.8 35.6,29.9 33,28.1 25.8,23 19.8,22.8 13.4,27.2 c -0.5,0.3 -1.1,0.2 -1.4,-0.3 -0.3,-0.5 -0.2,-1.1 0.3,-1.4 7.1,-4.9 14.1,-4.6 21.9,0.9 6.2,4.4 13.3,1.9 18.2,-1 0.5,-0.3 1.1,-0.1 1.4,0.4 0.3,0.5 0.1,1.1 -0.4,1.4 -4,2.4 -8,3.6 -11.7,3.6 z"
       id="path288" />
  </g>
  <path
     class="st0"
     d="M 50.1,20.8 C 50.2,20 50.3,19.2 50.3,18.4 50.3,11 44.3,5 36.9,5 32.4,5 28.2,7.3 25.7,11 24.5,10.5 23.3,10.2 22,10.2 c -5.100001,0 -9.300001,4.2 -9.300001,9.3 v 0.3 C 8.5999995,21.2 5.7,25 5.7,29.5 c 0,5.6 4.599999,10.2 10.199999,10.2 1.973108,-0.0384 2.035285,-2.744898 0,-2.7 -4.2,0 -7.4999995,-3.4 -7.4999995,-7.5 0,-3.6 2.4999995,-6.7 6.0999995,-7.4 l 1.3,-0.3 -0.2,-1.3 c -0.1,-0.4 -0.1,-0.7 -0.1,-1.1 0,-3.6 3.000001,-6.6 6.600001,-6.6 1.2,0 2.4,0.3 3.5,1 l 1.2,0.7 0.7,-1.3 C 29.4,9.7 33,7.5 37,7.5 c 5.9,0 10.7,4.8 10.7,10.7 0,1.1 -0.2,2.2 -0.5,3.3 l -0.6,1.9 2.1,-0.1 H 49 c 3.8,0 6.8,3.1 6.8,6.8 0,3.8 -3.1,6.8 -6.8,6.8 -2.135838,0.02823 -2.138152,2.721915 0,2.7 5.2,0 9.5,-4.3 9.5,-9.5 -0.1,-4.7 -3.7,-8.7 -8.4,-9.3 z"
     id="path271"
     style="fill:#ffffff"
     sodipodi:nodetypes="csscsscsccscccsscccsscccsscccc" />
</svg>
