<?xml version="1.0" encoding="UTF-8" standalone="no"?>
<svg
   id="weather-icon-fog"
   class="weather-icon weather-icon-white fog"
   viewBox="0 0 64 64"
   version="1.1"
   sodipodi:docname="mist.svg"
   inkscape:version="1.2.2 (b0a8486541, 2022-12-01)"
   xmlns:inkscape="http://www.inkscape.org/namespaces/inkscape"
   xmlns:sodipodi="http://sodipodi.sourceforge.net/DTD/sodipodi-0.dtd"
   xmlns="http://www.w3.org/2000/svg"
   xmlns:svg="http://www.w3.org/2000/svg">
  <defs
     id="defs313" />
  <sodipodi:namedview
     id="namedview311"
     pagecolor="#000000"
     bordercolor="#000000"
     borderopacity="0.25"
     inkscape:showpageshadow="2"
     inkscape:pageopacity="0"
     inkscape:pagecheckerboard="0"
     inkscape:deskcolor="#d1d1d1"
     showgrid="false"
     inkscape:zoom="11.609375"
     inkscape:cx="26.831763"
     inkscape:cy="30.837147"
     inkscape:window-width="1918"
     inkscape:window-height="1054"
     inkscape:window-x="0"
     inkscape:window-y="24"
     inkscape:window-maximized="1"
     inkscape:current-layer="weather-icon-fog" />
  <style
     type="text/css"
     id="style303">.st0{fill:#FFFFFF;}</style>
  <path
     style="fill:#ffffff;stroke-width:0.115637"
     d="m 15.178638,29.199035 h 10.800935 10.800929 c 1.495038,0 1.419311,2.495895 0,2.495895 H 25.979573 15.178638 c -1.42109,0 -1.345789,-2.495895 0,-2.495895 z m 26.327276,0 h 3.600308 3.600314 c 1.530563,0 1.536021,2.495895 0,2.495895 h -3.600314 -3.600308 c -1.34625,0 -1.354284,-2.495895 0,-2.495895 z M 10.340718,19.096615 h 9.619581 9.619581 c 1.07707,0 1.022087,2.495894 0,2.495894 h -9.619581 -9.619581 c -1.0152847,0 -1.0597253,-2.495894 0,-2.495894 z m 23.96457,0 h 9.619581 9.619582 c 1.23155,0 1.149202,2.495894 0,2.495894 h -9.619582 -9.619581 c -0.873177,0 -0.857813,-2.495894 0,-2.495894 z M 15.178638,8.872 18.75082,8.903379 22.323006,8.934786 c 1.032881,0 1.051756,2.495893 0,2.495893 l -3.572186,0.03141 -3.572182,0.03138 c -0.984467,0 -1.144552,-2.6214244 0,-2.6214244 z m 11.97427,2.460602 c -1.173529,0 -1.212922,-2.3978351 0.008,-2.3978351 l 10.772808,-0.030302 10.772808,-0.030302 c 1.640624,0 1.592631,2.6159421 0,2.6159421 h -10.74818 c -8.819322,0 -10.758477,-0.02828 -10.805415,-0.157484 z"
     id="path223"
     sodipodi:nodetypes="ccccccccccccccccccccccccccccccccccccccccscc" />
</svg>
