<?xml version="1.0" encoding="UTF-8" standalone="no"?>
<!-- Generator: Adobe Illustrator 21.1.0, SVG Export Plug-In . SVG Version: 6.00 Build 0)  -->

<svg
   version="1.1"
   id="Layer_4"
   x="0px"
   y="0px"
   viewBox="0 0 64 64"
   style="enable-background:new 0 0 64 64;"
   xml:space="preserve"
   sodipodi:docname="moon.svg"
   inkscape:version="1.2.2 (b0a8486541, 2022-12-01)"
   xmlns:inkscape="http://www.inkscape.org/namespaces/inkscape"
   xmlns:sodipodi="http://sodipodi.sourceforge.net/DTD/sodipodi-0.dtd"
   xmlns="http://www.w3.org/2000/svg"
   xmlns:svg="http://www.w3.org/2000/svg"><defs
   id="defs240" /><sodipodi:namedview
   id="namedview238"
   pagecolor="#000000"
   bordercolor="#000000"
   borderopacity="0.25"
   inkscape:showpageshadow="2"
   inkscape:pageopacity="0"
   inkscape:pagecheckerboard="0"
   inkscape:deskcolor="#d1d1d1"
   showgrid="false"
   inkscape:zoom="11.609375"
   inkscape:cx="19.897712"
   inkscape:cy="32.086137"
   inkscape:window-width="1918"
   inkscape:window-height="1054"
   inkscape:window-x="0"
   inkscape:window-y="24"
   inkscape:window-maximized="1"
   inkscape:current-layer="Layer_4" />
<style
   type="text/css"
   id="style233">
	.st0{fill:#FFFFFF;}
</style>
<path
   class="st0"
   d="m 48.641361,24.798502 c -10.34463,0 -21.7687,-8.185751 -16.551408,-21.4988396 v 0 C 20.935743,3.2097091 13.289712,12.294993 13.289712,22.00995 c 0,10.34463 8.365658,18.800241 18.800241,18.800241 9.445097,0 17.271035,-6.836451 18.620335,-15.921735 0,-0.08995 -1.3493,-0.08995 -2.068927,-0.08995 z M 32.359813,38.021638 c -8.905377,0 -16.101642,-7.196264 -16.101642,-16.101641 0,-7.376172 5.217292,-13.58295 11.96379,-15.5619222 v 0.089953 C 26.602801,17.692191 34.608646,27.137288 46.842295,28.216728 v 0 c -3.148365,6.116825 -7.466124,9.53505 -14.482482,9.80491 z"
   id="path235"
   style="stroke-width:0.899533" />
</svg>
