<?xml version="1.0" encoding="UTF-8" standalone="no"?>
<!-- Generator: Adobe Illustrator 21.1.0, SVG Export Plug-In . SVG Version: 6.00 Build 0)  -->

<svg
   version="1.1"
   id="weather-icon-snow"
   x="0px"
   y="0px"
   viewBox="0 0 64 64"
   style="enable-background:new 0 0 64 64;"
   xml:space="preserve"
   sodipodi:docname="snow.svg"
   inkscape:version="1.2.2 (b0a8486541, 2022-12-01)"
   xmlns:inkscape="http://www.inkscape.org/namespaces/inkscape"
   xmlns:sodipodi="http://sodipodi.sourceforge.net/DTD/sodipodi-0.dtd"
   xmlns="http://www.w3.org/2000/svg"
   xmlns:svg="http://www.w3.org/2000/svg"><defs
   id="defs182" /><sodipodi:namedview
   id="namedview180"
   pagecolor="#000000"
   bordercolor="#000000"
   borderopacity="0.25"
   inkscape:showpageshadow="2"
   inkscape:pageopacity="0"
   inkscape:pagecheckerboard="0"
   inkscape:deskcolor="#d1d1d1"
   showgrid="false"
   inkscape:zoom="11.609375"
   inkscape:cx="19.811575"
   inkscape:cy="32"
   inkscape:window-width="1918"
   inkscape:window-height="1054"
   inkscape:window-x="0"
   inkscape:window-y="24"
   inkscape:window-maximized="1"
   inkscape:current-layer="weather-icon-snow" />
<style
   type="text/css"
   id="style176">
	.st0{fill:#FFFFFF;}
</style>
<path
   id="snow"
   class="st0"
   d="m 52.116984,22.570927 h -5.609018 l 2.373036,-2.373063 c 0.431479,-0.431468 0.431479,-1.078641 0,-1.510107 -0.43145,-0.431475 -1.078645,-0.431475 -1.510111,0 l -3.883178,3.88317 h -8.952871 l 6.364087,-6.364098 h 5.501156 c 0.539338,0 1.07866,-0.431464 1.07866,-1.078661 0,-0.539317 -0.431466,-1.078646 -1.07866,-1.078646 h -3.343838 l 3.991033,-3.991043 c 0.431466,-0.431467 0.431466,-1.078662 0,-1.5101292 -0.431449,-0.4314588 -1.078646,-0.4314588 -1.51012,0 L 41.546126,12.539384 V 9.195546 c 0,-0.5393161 -0.431464,-1.078655 -1.07866,-1.078655 -0.539319,0 -1.078647,0.4314588 -1.078647,1.078655 v 5.501173 l -6.364097,6.36407 v -8.952855 l 3.883176,-3.8831679 c 0.431468,-0.4314772 0.431468,-1.078674 0,-1.510125 -0.431466,-0.4314643 -1.078663,-0.4314643 -1.510122,0 L 33.024721,9.08768 V 3.478663 C 33.024721,2.939332 32.593257,2.4 31.94606,2.4 31.406742,2.4 30.867413,2.8314668 30.867413,3.478663 V 9.08768 L 28.494351,6.7146419 c -0.431467,-0.4314643 -1.07864,-0.4314643 -1.510106,0 -0.431475,0.4314502 -0.431475,1.078647 0,1.5101242 l 3.883169,3.8831679 v 8.952855 l -6.364099,-6.36407 V 9.195546 c 0,-0.5393161 -0.431465,-1.078655 -1.078661,-1.078655 -0.539318,0 -1.078646,0.4314588 -1.078646,1.078655 v 3.343838 L 18.354966,8.5483498 c -0.431467,-0.4314588 -1.078663,-0.4314588 -1.51013,0 -0.431458,0.4314672 -0.431458,1.0786622 0,1.5101292 l 3.991034,3.991043 h -3.343837 c -0.539318,0 -1.078656,0.43145 -1.078656,1.078646 0,0.539329 0.431458,1.078661 1.078656,1.078661 h 5.501172 l 6.36407,6.364098 h -8.952854 l -3.883169,-3.88317 c -0.431477,-0.431475 -1.078673,-0.431475 -1.510123,0 -0.431466,0.431466 -0.431466,1.078639 0,1.510107 l 2.373037,2.373063 H 11.77515 c -0.539331,0 -1.078663,0.43145 -1.078663,1.078647 0,0.539328 0.431467,1.07866 1.078663,1.07866 h 5.609016 l -2.373038,2.373054 c -0.431466,0.43146 -0.431466,1.078656 0,1.510122 0.215732,0.21573 0.43145,0.323587 0.755052,0.323587 0.21573,0 0.53934,-0.107857 0.755072,-0.323587 l 3.883168,-3.883176 h 8.952855 l -6.364071,6.364097 h -5.501172 c -0.539317,0 -1.078655,0.431451 -1.078655,1.078647 0,0.539329 0.431458,1.078661 1.078655,1.078661 h 3.343837 l -3.883154,3.775312 c -0.431463,0.431452 -0.431463,1.078647 0,1.510111 0.215732,0.215733 0.431451,0.323614 0.755055,0.323614 0.215728,0 0.539338,-0.107881 0.755068,-0.323614 L 22.45387,34.54403 v 3.343839 c 0,0.53934 0.431466,1.078671 1.078662,1.078671 0.539318,0 1.078648,-0.431478 1.078648,-1.078671 v -5.501146 l 6.364096,-6.364097 v 8.952873 l -3.883175,3.883177 c -0.431468,0.431457 -0.431468,1.078655 0,1.510121 0.215729,0.215718 0.431466,0.323586 0.755051,0.323586 0.323611,0 0.53934,-0.107868 0.75507,-0.323586 l 2.373054,-2.373057 v 5.609034 c 0,0.539325 0.431465,1.078663 1.078661,1.078663 0.539319,0 1.078648,-0.431467 1.078648,-1.078663 V 37.99574 l 2.373062,2.373057 c 0.215722,0.215718 0.431468,0.323586 0.755057,0.323586 0.323583,0 0.53933,-0.107868 0.755051,-0.323586 0.431475,-0.431466 0.431475,-1.078664 0,-1.510121 l -3.88317,-3.883177 v -8.952873 l 6.364097,6.364097 v 5.501146 c 0,0.53934 0.431466,1.078671 1.078662,1.078671 0.539319,0 1.078647,-0.431478 1.078647,-1.078671 V 34.54403 l 3.991042,3.991032 c 0.215736,0.215733 0.431466,0.323614 0.755052,0.323614 0.323611,0 0.539339,-0.107881 0.755077,-0.323614 0.431458,-0.431464 0.431458,-1.078659 0,-1.510111 L 43.16413,33.033909 h 3.343837 c 0.539316,0 1.078654,-0.431467 1.078654,-1.078663 0,-0.539321 -0.431458,-1.078661 -1.078654,-1.078661 h -5.501173 l -6.36407,-6.364081 h 8.952855 l 3.883167,3.883177 c 0.215733,0.215729 0.431477,0.323587 0.755072,0.323587 0.323602,0 0.539321,-0.107858 0.755052,-0.323587 0.431465,-0.431465 0.431465,-1.078662 0,-1.510129 l -2.373038,-2.373048 h 5.609017 c 0.53933,0 1.078663,-0.431466 1.078663,-1.078663 -0.21573,-0.431464 -0.647197,-0.862914 -1.186528,-0.862914 z"
   style="stroke-width:1.07857" />
</svg>
