<?xml version="1.0" encoding="UTF-8" standalone="no"?>
<!-- Generator: Adobe Illustrator 21.1.0, SVG Export Plug-In . SVG Version: 6.00 Build 0)  -->

<svg
   version="1.1"
   id="weather-icon-tstorms"
   x="0px"
   y="0px"
   viewBox="0 0 64 64"
   style="enable-background:new 0 0 64 64;"
   xml:space="preserve"
   sodipodi:docname="thunderstorm.svg"
   inkscape:version="1.2.2 (b0a8486541, 2022-12-01)"
   xmlns:inkscape="http://www.inkscape.org/namespaces/inkscape"
   xmlns:sodipodi="http://sodipodi.sourceforge.net/DTD/sodipodi-0.dtd"
   xmlns="http://www.w3.org/2000/svg"
   xmlns:svg="http://www.w3.org/2000/svg"><defs
   id="defs258" /><sodipodi:namedview
   id="namedview256"
   pagecolor="#000000"
   bordercolor="#000000"
   borderopacity="0.25"
   inkscape:showpageshadow="2"
   inkscape:pageopacity="0"
   inkscape:pagecheckerboard="0"
   inkscape:deskcolor="#d1d1d1"
   showgrid="false"
   inkscape:zoom="11.609375"
   inkscape:cx="19.983849"
   inkscape:cy="32.689098"
   inkscape:window-width="1918"
   inkscape:window-height="1054"
   inkscape:window-x="0"
   inkscape:window-y="24"
   inkscape:window-maximized="1"
   inkscape:current-layer="weather-icon-tstorms" />
<style
   type="text/css"
   id="style247">
	.st0{fill:#FFFFFF;}
</style>
<path
   class="st0"
   d="m 20.35,51.5 c -0.2,0 -0.4,0 -0.6,-0.1 -0.7,-0.3 -0.9,-1.1 -0.6,-1.8 l 2.8,-5.8 c 0.3,-0.7 1.1,-0.9 1.8,-0.6 0.7,0.3 0.9,1.1 0.6,1.8 l -2.8,5.8 c -0.3,0.4 -0.7,0.7 -1.2,0.7 z m -6.6,0 c -0.2,0 -0.4,0 -0.6,-0.1 -0.7,-0.3 -0.9,-1.1 -0.6,-1.8 l 2.8,-5.8 c 0.3,-0.7 1.1,-0.9 1.8,-0.6 0.7,0.3 0.9,1.1 0.6,1.8 l -2.8,5.8 c -0.2,0.4 -0.7,0.7 -1.2,0.7 z m 33.7,0 c -0.2,0 -0.4,0 -0.6,-0.1 -0.7,-0.3 -0.9,-1.1 -0.6,-1.8 l 2.8,-5.8 c 0.3,-0.7 1.1,-0.9 1.8,-0.6 0.7,0.3 0.9,1.1 0.6,1.8 l -2.8,5.8 c -0.2,0.4 -0.7,0.7 -1.2,0.7 z m -6.6,0 c -0.2,0 -0.4,0 -0.6,-0.1 -0.7,-0.3 -0.9,-1.1 -0.6,-1.8 l 2.8,-5.8 c 0.3,-0.7 1.1,-0.9 1.8,-0.6 0.7,0.3 0.9,1.1 0.6,1.8 l -2.8,5.8 c -0.2,0.4 -0.7,0.7 -1.2,0.7 z"
   id="path249" />
<path
   class="st0"
   d="m 27.05,57.8 c -0.2,0 -0.5,-0.1 -0.7,-0.2 -0.6,-0.4 -0.8,-1.2 -0.4,-1.8 l 7.9,-13.1 h -8.3 l 9.3,-13.2 c 0.4,-0.6 1.2,-0.7 1.8,-0.3 0.6,0.4 0.7,1.3 0.3,1.9 l -6.4,9.1 h 7.9 l -10.3,16.9 c -0.2,0.4 -0.7,0.7 -1.1,0.7 z"
   id="path251" />
<path
   class="st0"
   d="M 50,20.8 C 50.1,20 50.2,19.2 50.2,18.4 50.2,11 44.2,5 36.8,5 32.3,5 28.1,7.3 25.6,11 24.5,10.5 23.2,10.2 22,10.2 c -5.1,0 -9.3,4.2 -9.3,9.3 v 0.3 c -4.1,1.4 -7,5.2 -7,9.7 0,5.6 4.6,10.2 10.2,10.2 h 5 c 1.6,0 1.5,-2.6 0,-2.6 h -5 c -4.2,0 -7.5,-3.4 -7.5,-7.5 0,-3.6 2.5,-6.7 6.1,-7.4 L 15.8,22 15.6,20.7 c -0.1,-0.4 -0.1,-0.8 -0.1,-1.1 0,-3.6 3,-6.6 6.6,-6.6 1.2,0 2.4,0.3 3.5,1 l 1.2,0.7 0.7,-1.3 C 29.4,9.9 33,7.7 37,7.7 c 5.9,0 10.7,4.8 10.7,10.7 0,1.1 -0.2,2.2 -0.5,3.3 l -0.8,1.8 2.1,-0.1 h 0.3 c 3.8,0 6.8,3.1 6.8,6.8 0,3.8 -3.1,6.8 -6.8,6.8 h -5.7 c -1.7,0 -2,2.6 0,2.6 h 5.7 c 5.2,0 9.5,-4.3 9.5,-9.5 0,-4.7 -3.7,-8.7 -8.3,-9.3 z"
   id="path253" />
</svg>
