<?xml version="1.0" encoding="UTF-8" standalone="no"?>
<svg
   id="weather-icon-cloudy"
   class="weather-icon weather-icon-white cloudy"
   viewBox="0 0 64 64"
   version="1.1"
   sodipodi:docname="clouds.svg"
   inkscape:version="1.2.2 (b0a8486541, 2022-12-01)"
   xmlns:inkscape="http://www.inkscape.org/namespaces/inkscape"
   xmlns:sodipodi="http://sodipodi.sourceforge.net/DTD/sodipodi-0.dtd"
   xmlns="http://www.w3.org/2000/svg"
   xmlns:svg="http://www.w3.org/2000/svg">
  <defs
     id="defs226" />
  <sodipodi:namedview
     id="namedview224"
     pagecolor="#000000"
     bordercolor="#000000"
     borderopacity="0.25"
     inkscape:showpageshadow="2"
     inkscape:pageopacity="0"
     inkscape:pagecheckerboard="0"
     inkscape:deskcolor="#d1d1d1"
     showgrid="false"
     inkscape:zoom="11.609375"
     inkscape:cx="19.897712"
     inkscape:cy="32.086137"
     inkscape:window-width="1918"
     inkscape:window-height="1054"
     inkscape:window-x="0"
     inkscape:window-y="24"
     inkscape:window-maximized="1"
     inkscape:current-layer="weather-icon-cloudy" />
  <style
     type="text/css"
     id="style220">.st0{fill:#FFFFFF;}</style>
  <path
     class="st0"
     d="M 49.7,39.7 H 16.8 c -5.6,0 -10.2,-4.6 -10.2,-10.2 0,-4.4 2.9,-8.3 7,-9.7 v -0.3 c 0,-5.1 4.2,-9.3 9.3,-9.3 1.3,0 2.5,0.3 3.7,0.8 2.5,-3.7 6.6,-6 11.2,-6 7.4,0 13.4,6 13.4,13.4 0,0.8 -0.1,1.6 -0.2,2.4 4.7,0.6 8.3,4.6 8.3,9.4 -0.1,5.2 -4.4,9.5 -9.6,9.5 z M 22.9,12.9 c -3.6,0 -6.6,3 -6.6,6.6 0,0.3 0,0.7 0.1,1.1 l 0.2,1.3 -1.3,0.2 c -3.5,0.7 -6.1,3.8 -6.1,7.4 0,4.2 3.4,7.5 7.5,7.5 h 32.9 c 3.8,0 6.8,-3.1 6.8,-6.8 0,-3.8 -3.1,-6.8 -6.8,-6.8 h -0.3 l -2,0.1 0.6,-1.9 c 0.3,-1.1 0.5,-2.2 0.5,-3.3 0,-5.9 -4.8,-10.7 -10.7,-10.7 -4,0 -7.6,2.2 -9.5,5.7 l -0.7,1.3 -1.2,-0.7 c -1,-0.7 -2.2,-1 -3.4,-1 z"
     id="cloudy" />
</svg>
