<?xml version="1.0" encoding="UTF-8" standalone="no"?>
<!-- Generator: Adobe Illustrator 21.1.0, SVG Export Plug-In . SVG Version: 6.00 Build 0)  -->

<svg
   version="1.1"
   id="weather-icon-rain"
   x="0px"
   y="0px"
   viewBox="0 0 64 64"
   style="enable-background:new 0 0 64 64;"
   xml:space="preserve"
   sodipodi:docname="rain.svg"
   inkscape:version="1.2.2 (b0a8486541, 2022-12-01)"
   xmlns:inkscape="http://www.inkscape.org/namespaces/inkscape"
   xmlns:sodipodi="http://sodipodi.sourceforge.net/DTD/sodipodi-0.dtd"
   xmlns="http://www.w3.org/2000/svg"
   xmlns:svg="http://www.w3.org/2000/svg"><defs
   id="defs276" /><sodipodi:namedview
   id="namedview274"
   pagecolor="#000000"
   bordercolor="#000000"
   borderopacity="0.25"
   inkscape:showpageshadow="2"
   inkscape:pageopacity="0"
   inkscape:pagecheckerboard="0"
   inkscape:deskcolor="#d1d1d1"
   showgrid="false"
   inkscape:zoom="11.609375"
   inkscape:cx="19.897712"
   inkscape:cy="32.086137"
   inkscape:window-width="1918"
   inkscape:window-height="1054"
   inkscape:window-x="0"
   inkscape:window-y="24"
   inkscape:window-maximized="1"
   inkscape:current-layer="weather-icon-rain" />
<style
   type="text/css"
   id="style267">
	.st0{fill:#FFFFFF;}
</style>
<path
   class="st0"
   d="m 25.5,57.7 c -0.2,0 -0.3,0 -0.5,-0.1 -0.7,-0.3 -1,-1.1 -0.7,-1.7 L 33.6,34 c 0.3,-0.7 1.1,-1 1.7,-0.7 0.7,0.3 1,1.1 0.7,1.7 l -9.3,21.9 c -0.2,0.5 -0.7,0.8 -1.2,0.8 z M 34,51.9 c -0.2,0 -0.3,0 -0.5,-0.1 -0.7,-0.3 -1,-1.1 -0.7,-1.7 l 6.6,-16 c 0.3,-0.7 1.1,-1 1.7,-0.7 0.7,0.3 1,1.1 0.7,1.7 l -6.6,16 C 35,51.6 34.5,51.9 34,51.9 Z m -12.1,0 c -0.2,0 -0.3,0 -0.5,-0.1 -0.7,-0.3 -1,-1.1 -0.7,-1.7 l 6.6,-16 c 0.3,-0.7 1.1,-1 1.7,-0.7 0.7,0.3 1,1.1 0.7,1.7 l -6.6,16 c -0.2,0.5 -0.6,0.8 -1.2,0.8 z"
   id="path269" />
<path
   class="st0"
   d="M 50.9,20.8 C 51,20 51.1,19.2 51.1,18.4 51.1,11 45.1,5 37.7,5 33.2,5 29,7.3 26.5,11 c -1.2,-0.5 -2.4,-0.8 -3.7,-0.8 -5.1,0 -9.3,4.2 -9.3,9.3 v 0.3 c -4.1,1.4 -7,5.2 -7,9.7 0,5.6 4.6,10.2 10.2,10.2 h 5 c 1.6,0 1.5,-2.7 0,-2.7 h -5 c -4.2,0 -7.5,-3.4 -7.5,-7.5 0,-3.6 2.5,-6.7 6.1,-7.4 l 1.3,-0.3 -0.2,-1.3 c -0.1,-0.4 -0.1,-0.7 -0.1,-1.1 0,-3.6 3,-6.6 6.6,-6.6 1.2,0 2.4,0.3 3.5,1 l 1.2,0.7 0.7,-1.3 c 1.9,-3.5 5.5,-5.7 9.5,-5.7 5.9,0 10.7,4.8 10.7,10.7 0,1.1 -0.2,2.2 -0.5,3.3 l -0.6,1.9 2.1,-0.1 h 0.3 c 3.8,0 6.8,3.1 6.8,6.8 0,3.8 -3.1,6.8 -6.8,6.8 h -5.7 c -1.7,0 -2,2.7 0,2.7 h 5.7 c 5.2,0 9.5,-4.3 9.5,-9.5 -0.1,-4.7 -3.7,-8.7 -8.4,-9.3 z"
   id="path271" />
</svg>
