<?xml version="1.0" encoding="UTF-8" standalone="no"?>
<!-- Generator: Adobe Illustrator 21.1.0, SVG Export Plug-In . SVG Version: 6.00 Build 0)  -->

<svg
   version="1.1"
   id="weather-icon-sunny"
   x="0px"
   y="0px"
   viewBox="0 0 64 64"
   style="enable-background:new 0 0 64 64;"
   xml:space="preserve"
   sodipodi:docname="sun.svg"
   inkscape:version="1.2.2 (b0a8486541, 2022-12-01)"
   xmlns:inkscape="http://www.inkscape.org/namespaces/inkscape"
   xmlns:sodipodi="http://sodipodi.sourceforge.net/DTD/sodipodi-0.dtd"
   xmlns="http://www.w3.org/2000/svg"
   xmlns:svg="http://www.w3.org/2000/svg"><defs
   id="defs10" /><sodipodi:namedview
   id="namedview8"
   pagecolor="#000000"
   bordercolor="#000000"
   borderopacity="0.25"
   inkscape:showpageshadow="2"
   inkscape:pageopacity="0"
   inkscape:pagecheckerboard="0"
   inkscape:deskcolor="#d1d1d1"
   showgrid="false"
   inkscape:zoom="11.609375"
   inkscape:cx="19.897712"
   inkscape:cy="32.086137"
   inkscape:window-width="1918"
   inkscape:window-height="1054"
   inkscape:window-x="0"
   inkscape:window-y="24"
   inkscape:window-maximized="1"
   inkscape:current-layer="weather-icon-sunny" />
<style
   type="text/css"
   id="style2">
	.st0{fill:#FFFFFF;}
</style>
<g
   id="sunny"
   transform="matrix(1.0175384,0,0,1.0175384,-1.4770134,-9.8104608)">
	<path
   class="st0"
   d="m 32.9,19.2 c -0.7,0 -1.3,-0.6 -1.3,-1.3 v -4.6 c 0,-0.7 0.6,-1.3 1.3,-1.3 0.7,0 1.3,0.6 1.3,1.3 v 4.6 c 0,0.7 -0.6,1.3 -1.3,1.3 z m 0,34.6 c -0.7,0 -1.3,-0.6 -1.3,-1.3 v -4.6 c 0,-0.7 0.6,-1.3 1.3,-1.3 0.7,0 1.3,0.6 1.3,1.3 v 4.6 c 0,0.7 -0.6,1.3 -1.3,1.3 z m -15,-19.6 h -4.6 c -0.7,0 -1.3,-0.6 -1.3,-1.3 0,-0.7 0.6,-1.3 1.3,-1.3 h 4.6 c 0.7,0 1.3,0.6 1.3,1.3 0,0.7 -0.6,1.3 -1.3,1.3 z m 34.6,0 h -4.6 c -0.7,0 -1.3,-0.6 -1.3,-1.3 0,-0.7 0.6,-1.3 1.3,-1.3 h 4.6 c 0.7,0 1.3,0.6 1.3,1.3 0,0.7 -0.6,1.3 -1.3,1.3 z M 44,23.5 c -0.3,0 -0.7,-0.1 -0.9,-0.4 -0.5,-0.5 -0.5,-1.4 0,-1.9 L 46.3,18 c 0.5,-0.5 1.4,-0.5 1.9,0 0.5,0.5 0.5,1.4 0,1.9 L 45,23.1 c -0.3,0.3 -0.7,0.4 -1,0.4 z M 19.1,48.4 c -0.3,0 -0.7,-0.1 -0.9,-0.4 -0.5,-0.5 -0.5,-1.4 0,-1.9 l 3.2,-3.2 c 0.5,-0.5 1.4,-0.5 1.9,0 0.5,0.5 0.5,1.4 0,1.9 L 20,48 c -0.2,0.3 -0.6,0.4 -0.9,0.4 z m 28.1,-0.2 c -0.3,0 -0.7,-0.1 -0.9,-0.4 l -3.2,-3.2 c -0.5,-0.5 -0.5,-1.4 0,-1.9 0.5,-0.5 1.4,-0.5 1.9,0 l 3.2,3.2 c 0.5,0.5 0.5,1.4 0,1.9 -0.3,0.3 -0.6,0.4 -1,0.4 z M 22.3,23.8 c -0.3,0 -0.7,-0.1 -0.9,-0.4 l -3.2,-3.2 c -0.5,-0.5 -0.5,-1.4 0,-1.9 0.5,-0.5 1.4,-0.5 1.9,0 l 3.2,3.2 c 0.5,0.5 0.5,1.4 0,1.9 -0.3,0.2 -0.6,0.4 -1,0.4 z m 10.6,0.7 c 4.6,0 8.4,3.8 8.4,8.4 0,4.6 -3.8,8.4 -8.4,8.4 -4.6,0 -8.4,-3.8 -8.4,-8.4 0,-4.6 3.8,-8.4 8.4,-8.4 m 0,-2.7 c -6.1,0 -11.1,5 -11.1,11.1 0,6.1 5,11.1 11.1,11.1 C 39,44 44,39 44,32.9 44,26.8 39,21.8 32.9,21.8 Z"
   id="path4" />
</g>
</svg>
